<mxfile host="app.diagrams.net" modified="2023-07-05T14:15:57.884Z" agent="Mozilla/5.0 (Macintosh; Intel Mac OS X 10_15_7) AppleWebKit/537.36 (KHTML, like Gecko) Chrome/113.0.0.0 Safari/537.36 Edg/113.0.1774.57" etag="E5eM6DBlOasublq6ySwk" version="21.5.2" type="github">
  <diagram name="第 1 页" id="vYGmFmP2Lva24OXTDVVa">
    <mxGraphModel dx="711" dy="486" grid="1" gridSize="10" guides="1" tooltips="1" connect="1" arrows="1" fold="1" page="1" pageScale="1" pageWidth="827" pageHeight="1169" math="0" shadow="0">
      <root>
        <mxCell id="0" />
        <mxCell id="1" parent="0" />
        <mxCell id="0ty1MtPIsn8DT-ruyWdK-3" value="AWS Elastic Container Registry" style="rounded=1;whiteSpace=wrap;html=1;fillColor=#ffcc99;strokeColor=#36393d;arcSize=34;" parent="1" vertex="1">
          <mxGeometry x="600" y="169" width="110" height="40" as="geometry" />
        </mxCell>
        <mxCell id="0ty1MtPIsn8DT-ruyWdK-4" value="AWS S3" style="shape=cylinder3;whiteSpace=wrap;html=1;boundedLbl=1;backgroundOutline=1;size=7.692307692307637;fillColor=#ffcc99;strokeColor=#36393d;" parent="1" vertex="1">
          <mxGeometry x="200" y="112" width="54" height="60" as="geometry" />
        </mxCell>
        <mxCell id="0ty1MtPIsn8DT-ruyWdK-6" value="" style="outlineConnect=0;dashed=0;verticalLabelPosition=bottom;verticalAlign=top;align=center;html=1;shape=mxgraph.aws3.lambda_function;fillColor=#F58534;gradientColor=none;" parent="1" vertex="1">
          <mxGeometry x="339" y="109" width="50" height="50" as="geometry" />
        </mxCell>
        <mxCell id="0ty1MtPIsn8DT-ruyWdK-8" value="" style="rounded=0;whiteSpace=wrap;html=1;fillColor=#b0e3e6;strokeColor=#0e8088;" parent="1" vertex="1">
          <mxGeometry x="200" y="240" width="80" height="80" as="geometry" />
        </mxCell>
        <mxCell id="0ty1MtPIsn8DT-ruyWdK-1" value="AWS SDK" style="rounded=0;whiteSpace=wrap;html=1;fillColor=#cce5ff;strokeColor=#36393d;" parent="1" vertex="1">
          <mxGeometry x="632" y="225" width="46" height="40" as="geometry" />
        </mxCell>
        <mxCell id="0ty1MtPIsn8DT-ruyWdK-10" value="User" style="shape=umlActor;verticalLabelPosition=bottom;verticalAlign=top;html=1;outlineConnect=0;" parent="1" vertex="1">
          <mxGeometry x="80" y="240" width="30" height="60" as="geometry" />
        </mxCell>
        <mxCell id="0ty1MtPIsn8DT-ruyWdK-11" value="" style="endArrow=classic;html=1;rounded=0;" parent="1" edge="1">
          <mxGeometry width="50" height="50" relative="1" as="geometry">
            <mxPoint x="130" y="269.62" as="sourcePoint" />
            <mxPoint x="190" y="269.62" as="targetPoint" />
          </mxGeometry>
        </mxCell>
        <mxCell id="0ty1MtPIsn8DT-ruyWdK-12" value="" style="endArrow=classic;html=1;rounded=0;" parent="1" edge="1">
          <mxGeometry width="50" height="50" relative="1" as="geometry">
            <mxPoint x="130" y="290" as="sourcePoint" />
            <mxPoint x="190" y="290" as="targetPoint" />
          </mxGeometry>
        </mxCell>
        <mxCell id="0ty1MtPIsn8DT-ruyWdK-13" value="" style="html=1;shape=mxgraph.basic.isocube;isoAngle=15;" parent="1" vertex="1">
          <mxGeometry x="150" y="245" width="20" height="20" as="geometry" />
        </mxCell>
        <mxCell id="0ty1MtPIsn8DT-ruyWdK-14" value="&lt;font style=&quot;font-size: 10px;&quot;&gt;torch.nn.Module&lt;/font&gt;" style="text;html=1;align=center;verticalAlign=middle;resizable=0;points=[];autosize=1;strokeColor=none;fillColor=none;" parent="1" vertex="1">
          <mxGeometry x="109" y="217" width="100" height="30" as="geometry" />
        </mxCell>
        <mxCell id="0ty1MtPIsn8DT-ruyWdK-17" value="Client" style="text;html=1;align=center;verticalAlign=middle;resizable=0;points=[];autosize=1;strokeColor=none;fillColor=none;" parent="1" vertex="1">
          <mxGeometry x="215" y="320" width="50" height="30" as="geometry" />
        </mxCell>
        <mxCell id="0ty1MtPIsn8DT-ruyWdK-22" value="" style="group" parent="1" vertex="1" connectable="0">
          <mxGeometry x="142" y="298" width="28" height="32" as="geometry" />
        </mxCell>
        <mxCell id="0ty1MtPIsn8DT-ruyWdK-18" value="" style="shape=note;whiteSpace=wrap;html=1;backgroundOutline=1;darkOpacity=0.05;size=9;" parent="0ty1MtPIsn8DT-ruyWdK-22" vertex="1">
          <mxGeometry width="19.764705882352942" height="24" as="geometry" />
        </mxCell>
        <mxCell id="0ty1MtPIsn8DT-ruyWdK-19" value="" style="shape=note;whiteSpace=wrap;html=1;backgroundOutline=1;darkOpacity=0.05;size=9;" parent="0ty1MtPIsn8DT-ruyWdK-22" vertex="1">
          <mxGeometry x="4.117647058823529" y="4" width="19.764705882352942" height="24" as="geometry" />
        </mxCell>
        <mxCell id="0ty1MtPIsn8DT-ruyWdK-20" value="" style="shape=note;whiteSpace=wrap;html=1;backgroundOutline=1;darkOpacity=0.05;size=9;" parent="0ty1MtPIsn8DT-ruyWdK-22" vertex="1">
          <mxGeometry x="8.235294117647058" y="8" width="19.764705882352942" height="24" as="geometry" />
        </mxCell>
        <mxCell id="0ty1MtPIsn8DT-ruyWdK-23" value="&lt;font style=&quot;font-size: 10px;&quot;&gt;data/config&lt;/font&gt;" style="text;html=1;align=center;verticalAlign=middle;resizable=0;points=[];autosize=1;strokeColor=none;fillColor=none;" parent="1" vertex="1">
          <mxGeometry x="99" y="322" width="70" height="30" as="geometry" />
        </mxCell>
        <mxCell id="0ty1MtPIsn8DT-ruyWdK-25" value="Pre-training" style="rounded=0;whiteSpace=wrap;html=1;fillColor=#cce5ff;strokeColor=#36393d;" parent="1" vertex="1">
          <mxGeometry x="205" y="245" width="72" height="35" as="geometry" />
        </mxCell>
        <mxCell id="vOYcjfGLHSD7jjnJ-SRt-3" value="" style="endArrow=classic;html=1;rounded=0;exitX=0.203;exitY=-0.02;exitDx=0;exitDy=0;exitPerimeter=0;" edge="1" parent="1" source="0ty1MtPIsn8DT-ruyWdK-25">
          <mxGeometry width="50" height="50" relative="1" as="geometry">
            <mxPoint x="219.70999999999998" y="236" as="sourcePoint" />
            <mxPoint x="220" y="171" as="targetPoint" />
          </mxGeometry>
        </mxCell>
        <mxCell id="vOYcjfGLHSD7jjnJ-SRt-5" value="" style="endArrow=classic;startArrow=classic;html=1;rounded=0;exitX=0.973;exitY=0.444;exitDx=0;exitDy=0;exitPerimeter=0;" edge="1" parent="1">
          <mxGeometry width="50" height="50" relative="1" as="geometry">
            <mxPoint x="254.00200000000004" y="141.32" as="sourcePoint" />
            <mxPoint x="340" y="141" as="targetPoint" />
          </mxGeometry>
        </mxCell>
        <mxCell id="vOYcjfGLHSD7jjnJ-SRt-11" value="" style="html=1;shape=mxgraph.basic.isocube;isoAngle=15;" vertex="1" parent="1">
          <mxGeometry x="270" y="116" width="20" height="20" as="geometry" />
        </mxCell>
        <mxCell id="vOYcjfGLHSD7jjnJ-SRt-12" value="" style="group" vertex="1" connectable="0" parent="1">
          <mxGeometry x="300" y="109" width="28" height="32" as="geometry" />
        </mxCell>
        <mxCell id="vOYcjfGLHSD7jjnJ-SRt-13" value="" style="shape=note;whiteSpace=wrap;html=1;backgroundOutline=1;darkOpacity=0.05;size=9;" vertex="1" parent="vOYcjfGLHSD7jjnJ-SRt-12">
          <mxGeometry width="19.764705882352942" height="24" as="geometry" />
        </mxCell>
        <mxCell id="vOYcjfGLHSD7jjnJ-SRt-14" value="" style="shape=note;whiteSpace=wrap;html=1;backgroundOutline=1;darkOpacity=0.05;size=9;" vertex="1" parent="vOYcjfGLHSD7jjnJ-SRt-12">
          <mxGeometry x="4.117647058823529" y="4" width="19.764705882352942" height="24" as="geometry" />
        </mxCell>
        <mxCell id="vOYcjfGLHSD7jjnJ-SRt-18" value="" style="endArrow=classic;html=1;rounded=0;entryX=0.145;entryY=0.855;entryDx=0;entryDy=0;entryPerimeter=0;" edge="1" parent="1" target="0ty1MtPIsn8DT-ruyWdK-6">
          <mxGeometry width="50" height="50" relative="1" as="geometry">
            <mxPoint x="255" y="245" as="sourcePoint" />
            <mxPoint x="305" y="195" as="targetPoint" />
          </mxGeometry>
        </mxCell>
        <mxCell id="vOYcjfGLHSD7jjnJ-SRt-19" value="&lt;font style=&quot;font-size: 10px;&quot;&gt;(deploy)&lt;/font&gt;" style="text;html=1;align=center;verticalAlign=middle;resizable=0;points=[];autosize=1;strokeColor=none;fillColor=none;rotation=315;" vertex="1" parent="1">
          <mxGeometry x="260" y="179" width="60" height="30" as="geometry" />
        </mxCell>
        <mxCell id="vOYcjfGLHSD7jjnJ-SRt-23" value="" style="endArrow=classic;html=1;rounded=0;exitX=1.009;exitY=0.4;exitDx=0;exitDy=0;entryX=0;entryY=0.25;entryDx=0;entryDy=0;exitPerimeter=0;" edge="1" parent="1" source="0ty1MtPIsn8DT-ruyWdK-25" target="vOYcjfGLHSD7jjnJ-SRt-28">
          <mxGeometry width="50" height="50" relative="1" as="geometry">
            <mxPoint x="300" y="300" as="sourcePoint" />
            <mxPoint x="360" y="257" as="targetPoint" />
          </mxGeometry>
        </mxCell>
        <mxCell id="vOYcjfGLHSD7jjnJ-SRt-24" value="Proxy&lt;br&gt;(on AWS EC2)" style="text;html=1;align=center;verticalAlign=middle;resizable=0;points=[];autosize=1;strokeColor=none;fillColor=none;" vertex="1" parent="1">
          <mxGeometry x="382" y="320" width="100" height="40" as="geometry" />
        </mxCell>
        <mxCell id="vOYcjfGLHSD7jjnJ-SRt-25" value="" style="outlineConnect=0;dashed=0;verticalLabelPosition=bottom;verticalAlign=top;align=center;html=1;shape=mxgraph.aws3.lambda_function;fillColor=#F58534;gradientColor=none;" vertex="1" parent="1">
          <mxGeometry x="363" y="109" width="50" height="50" as="geometry" />
        </mxCell>
        <mxCell id="vOYcjfGLHSD7jjnJ-SRt-26" value="" style="outlineConnect=0;dashed=0;verticalLabelPosition=bottom;verticalAlign=top;align=center;html=1;shape=mxgraph.aws3.lambda_function;fillColor=#F58534;gradientColor=none;" vertex="1" parent="1">
          <mxGeometry x="388" y="109" width="50" height="50" as="geometry" />
        </mxCell>
        <mxCell id="vOYcjfGLHSD7jjnJ-SRt-28" value="" style="rounded=0;whiteSpace=wrap;html=1;fillColor=#b0e3e6;strokeColor=#0e8088;" vertex="1" parent="1">
          <mxGeometry x="360" y="240" width="137" height="80" as="geometry" />
        </mxCell>
        <mxCell id="vOYcjfGLHSD7jjnJ-SRt-27" value="Parameter&lt;br&gt;Server" style="rounded=0;whiteSpace=wrap;html=1;fillColor=#cce5ff;strokeColor=#36393d;" vertex="1" parent="1">
          <mxGeometry x="423" y="247" width="67" height="33" as="geometry" />
        </mxCell>
        <mxCell id="vOYcjfGLHSD7jjnJ-SRt-30" value="Time Watcher" style="rounded=0;whiteSpace=wrap;html=1;fillColor=#cce5ff;strokeColor=#36393d;" vertex="1" parent="1">
          <mxGeometry x="370" y="153" width="60" height="30" as="geometry" />
        </mxCell>
        <mxCell id="vOYcjfGLHSD7jjnJ-SRt-31" value="Training&lt;br&gt;(Parallelism)" style="rounded=0;whiteSpace=wrap;html=1;fillColor=#cce5ff;strokeColor=#36393d;" vertex="1" parent="1">
          <mxGeometry x="439" y="145" width="70" height="38" as="geometry" />
        </mxCell>
        <mxCell id="vOYcjfGLHSD7jjnJ-SRt-33" value="" style="endArrow=classic;startArrow=classic;html=1;rounded=0;exitX=0.75;exitY=0;exitDx=0;exitDy=0;entryX=0.5;entryY=1;entryDx=0;entryDy=0;" edge="1" parent="1" target="vOYcjfGLHSD7jjnJ-SRt-31">
          <mxGeometry width="50" height="50" relative="1" as="geometry">
            <mxPoint x="474.75" y="247" as="sourcePoint" />
            <mxPoint x="477.71000000000004" y="179" as="targetPoint" />
          </mxGeometry>
        </mxCell>
        <mxCell id="vOYcjfGLHSD7jjnJ-SRt-34" value="Restart" style="rounded=0;whiteSpace=wrap;html=1;fillColor=#cce5ff;strokeColor=#36393d;" vertex="1" parent="1">
          <mxGeometry x="367.5" y="247" width="52.5" height="33" as="geometry" />
        </mxCell>
        <mxCell id="vOYcjfGLHSD7jjnJ-SRt-36" value="" style="endArrow=classic;html=1;rounded=0;exitX=0.5;exitY=1;exitDx=0;exitDy=0;entryX=0.622;entryY=-0.039;entryDx=0;entryDy=0;entryPerimeter=0;" edge="1" parent="1" source="vOYcjfGLHSD7jjnJ-SRt-30" target="vOYcjfGLHSD7jjnJ-SRt-34">
          <mxGeometry width="50" height="50" relative="1" as="geometry">
            <mxPoint x="320" y="230" as="sourcePoint" />
            <mxPoint x="390" y="230" as="targetPoint" />
          </mxGeometry>
        </mxCell>
        <mxCell id="vOYcjfGLHSD7jjnJ-SRt-37" value="" style="endArrow=classic;html=1;rounded=0;exitX=0.25;exitY=0;exitDx=0;exitDy=0;" edge="1" parent="1">
          <mxGeometry width="50" height="50" relative="1" as="geometry">
            <mxPoint x="378.625" y="247" as="sourcePoint" />
            <mxPoint x="358" y="160" as="targetPoint" />
          </mxGeometry>
        </mxCell>
        <mxCell id="vOYcjfGLHSD7jjnJ-SRt-38" value="&lt;font style=&quot;font-size: 10px;&quot;&gt;(deploy)&lt;/font&gt;" style="text;html=1;align=center;verticalAlign=middle;resizable=0;points=[];autosize=1;strokeColor=none;fillColor=none;rotation=0;" vertex="1" parent="1">
          <mxGeometry x="290" y="230" width="60" height="30" as="geometry" />
        </mxCell>
        <mxCell id="vOYcjfGLHSD7jjnJ-SRt-39" value="&lt;p style=&quot;line-height: 80%;&quot;&gt;&lt;font style=&quot;font-size: 10px;&quot;&gt;(invoke&lt;br&gt;again)&lt;/font&gt;&lt;/p&gt;" style="text;html=1;align=center;verticalAlign=middle;resizable=0;points=[];autosize=1;strokeColor=none;fillColor=none;rotation=0;" vertex="1" parent="1">
          <mxGeometry x="317" y="174" width="60" height="60" as="geometry" />
        </mxCell>
        <mxCell id="vOYcjfGLHSD7jjnJ-SRt-40" value="HT-resolution" style="rounded=0;whiteSpace=wrap;html=1;fillColor=#cce5ff;strokeColor=#36393d;" vertex="1" parent="1">
          <mxGeometry x="367.5" y="284" width="123" height="30" as="geometry" />
        </mxCell>
        <mxCell id="vOYcjfGLHSD7jjnJ-SRt-41" value="response" style="rounded=0;whiteSpace=wrap;html=1;fillColor=#cce5ff;strokeColor=#36393d;" vertex="1" parent="1">
          <mxGeometry x="205" y="290" width="72" height="24" as="geometry" />
        </mxCell>
        <mxCell id="vOYcjfGLHSD7jjnJ-SRt-42" value="Lambda&lt;br&gt;Server" style="text;html=1;align=center;verticalAlign=middle;resizable=0;points=[];autosize=1;strokeColor=none;fillColor=none;" vertex="1" parent="1">
          <mxGeometry x="430" y="105" width="70" height="40" as="geometry" />
        </mxCell>
        <mxCell id="vOYcjfGLHSD7jjnJ-SRt-43" value="weights&lt;br&gt;(HTTP)" style="text;html=1;align=center;verticalAlign=middle;resizable=0;points=[];autosize=1;strokeColor=none;fillColor=none;" vertex="1" parent="1">
          <mxGeometry x="470" y="193" width="60" height="40" as="geometry" />
        </mxCell>
        <mxCell id="vOYcjfGLHSD7jjnJ-SRt-44" value="" style="endArrow=classic;html=1;rounded=0;exitX=0;exitY=0.5;exitDx=0;exitDy=0;entryX=1;entryY=0.5;entryDx=0;entryDy=0;" edge="1" parent="1" source="vOYcjfGLHSD7jjnJ-SRt-40">
          <mxGeometry width="50" height="50" relative="1" as="geometry">
            <mxPoint x="367.5" y="296" as="sourcePoint" />
            <mxPoint x="277" y="298.9999999999999" as="targetPoint" />
          </mxGeometry>
        </mxCell>
      </root>
    </mxGraphModel>
  </diagram>
</mxfile>
